<?xml version="1.0" encoding="UTF-8"?>
<svg id="Capa_1" data-name="Capa 1" xmlns="http://www.w3.org/2000/svg" viewBox="0 0 40.82 40.82">
  <defs>
    <style>
      .cls-1 {
        fill: #3b8281;
        stroke-width: 0px;
      }
    </style>
  </defs>
  <path class="cls-1" d="m32.3,3.31c2.87,0,5.21,2.34,5.21,5.21v23.78c0,2.87-2.34,5.21-5.21,5.21H8.52c-2.87,0-5.21-2.34-5.21-5.21V8.52c0-2.87,2.34-5.21,5.21-5.21h23.78m0-3.31H8.52C3.82,0,0,3.82,0,8.52v23.78c0,4.71,3.82,8.52,8.52,8.52h23.78c4.71,0,8.52-3.82,8.52-8.52V8.52c0-4.71-3.82-8.52-8.52-8.52h0Z"/>
  <path class="cls-1" d="m28.72,20.91c-.25-.56-.8-.92-1.41-.92h-3.25v-8.35c0-.86-.69-1.55-1.55-1.55h-4.18c-.86,0-1.55.69-1.55,1.55v8.35h-3.25c-.61,0-1.17.36-1.41.92-.25.56-.14,1.21.27,1.67l6.89,7.64c.29.33.71.51,1.15.51s.86-.19,1.15-.51l6.89-7.64c.41-.45.51-1.11.27-1.67Z"/>
</svg>