<?xml version="1.0" encoding="utf-8"?>
<!-- Generator: Adobe Illustrator 27.9.0, SVG Export Plug-In . SVG Version: 6.00 Build 0)  -->
<svg version="1.1" id="Capa_1" xmlns="http://www.w3.org/2000/svg" xmlns:xlink="http://www.w3.org/1999/xlink" x="0px" y="0px"
	 viewBox="0 0 50.63 49.88" style="enable-background:new 0 0 50.63 49.88;" xml:space="preserve">
<style type="text/css">
	.st0{fill:#FFFFFF;}
</style>
<g>
	<g>
		<g>
			<path class="st0" d="M37.2,7.84c2.87,0,5.21,2.34,5.21,5.21v23.78c0,2.87-2.34,5.21-5.21,5.21H13.42c-2.87,0-5.21-2.34-5.21-5.21
				V13.05c0-2.87,2.34-5.21,5.21-5.21H37.2 M37.2,4.53H13.42c-4.71,0-8.52,3.82-8.52,8.52v23.78c0,4.71,3.82,8.52,8.52,8.52H37.2
				c4.71,0,8.52-3.82,8.52-8.52V13.05C45.72,8.34,41.91,4.53,37.2,4.53L37.2,4.53z"/>
		</g>
		<path class="st0" d="M33.62,25.44c-0.25-0.56-0.8-0.92-1.41-0.92h-3.25v-8.35c0-0.86-0.69-1.55-1.55-1.55h-4.18
			c-0.86,0-1.55,0.69-1.55,1.55v8.35h-3.25c-0.61,0-1.17,0.36-1.41,0.92c-0.25,0.56-0.14,1.21,0.27,1.67l6.89,7.64
			c0.29,0.33,0.71,0.51,1.15,0.51c0.44,0,0.86-0.19,1.15-0.51l6.89-7.64C33.77,26.65,33.87,26,33.62,25.44z"/>
	</g>
</g>
</svg>
