<?xml version="1.0" encoding="utf-8"?>
<!-- Generator: Adobe Illustrator 27.9.0, SVG Export Plug-In . SVG Version: 6.00 Build 0)  -->
<svg version="1.1" id="Capa_1" xmlns="http://www.w3.org/2000/svg" xmlns:xlink="http://www.w3.org/1999/xlink" x="0px" y="0px"
	 viewBox="0 0 128.63 90.88" style="enable-background:new 0 0 128.63 90.88;" xml:space="preserve">
<style type="text/css">
	.st0{fill:#F4BA51;}
	.st1{fill:#D4A247;}
	.st2{fill:#3B8281;}
	.st3{fill:#4BA1A1;}
</style>
<g>
	<g>
		<path class="st0" d="M64.91,34.91c0,6.67,5.41,12.09,12.09,12.09V22.82C70.32,22.82,64.91,28.24,64.91,34.91z"/>
		<path class="st1" d="M76.99,22.82V47c6.67,0,12.08-5.41,12.08-12.09C89.08,28.24,83.67,22.82,76.99,22.82z"/>
	</g>
	<path class="st2" d="M62.51,50.17L51.12,36.69c-1.47-1.74-5.15-1.74-6.62,0L10.78,63.65c-1.47,1.74,0.37,3.92,3.31,3.92h33.72h14.1
		h2.99V53.01L62.51,50.17z"/>
	<path class="st2" d="M122.68,66.49L98.18,24.64c-2.04-2.42-7.16-2.42-9.2,0L73.15,43.38l-8.19,9.69l-0.01-0.01l-0.05-0.05v14.56
		h0.05h5.63h22.99h21.32C118.98,67.57,124.73,68.91,122.68,66.49z"/>
	<rect x="10.27" y="62.26" class="st3" width="113.09" height="6.11"/>
</g>
</svg>
