<?xml version="1.0" encoding="utf-8"?>
<!-- Generator: Adobe Illustrator 27.9.0, SVG Export Plug-In . SVG Version: 6.00 Build 0)  -->
<svg version="1.1" id="Capa_1" xmlns="http://www.w3.org/2000/svg" xmlns:xlink="http://www.w3.org/1999/xlink" x="0px" y="0px"
	 viewBox="0 0 315.63 90.88" style="enable-background:new 0 0 315.63 90.88;" xml:space="preserve">
<style type="text/css">
	.st0{fill:#F4BA51;}
	.st1{fill:#D4A247;}
	.st2{fill:#3B8281;}
	.st3{fill:#4BA1A1;}
</style>
<g>
	<g>
		<path class="st0" d="M75.86,34.91c0,6.67,5.41,12.09,12.09,12.09V22.82C81.27,22.82,75.86,28.24,75.86,34.91z"/>
		<path class="st1" d="M87.95,22.82V47c6.67,0,12.08-5.41,12.08-12.09C100.03,28.24,94.62,22.82,87.95,22.82z"/>
	</g>
	<g>
		<path class="st0" d="M145.89,62.26V22.82h8.97v39.44H145.89z"/>
		<path class="st0" d="M189.05,62.26l0.33-27.07h-0.22l-6.63,27.07h-6.29l-6.41-27.07h-0.17l0.28,27.07h-8.08V22.82h11.25l6.35,25.4
			h0.22l6.18-25.4h11.92v39.44H189.05z"/>
		<path class="st0" d="M222.3,62.26l-1.62-7.19h-8.86l-1.62,7.19h-8.91l9.58-39.44h11.2l9.52,39.44H222.3z M216.4,31.4h-0.22
			l-3.34,16.77h6.74L216.4,31.4z"/>
		<path class="st0" d="M251.52,62.26l-5.27-15.71h-2.61v15.71h-8.58V22.82h12.62c3.82,0,6.78,0.99,8.89,2.98
			c2.11,1.99,3.17,4.95,3.17,8.88c0,1.45-0.17,2.75-0.5,3.9c-0.33,1.15-0.77,2.14-1.3,2.95c-0.54,0.82-1.14,1.49-1.8,2.01
			c-0.67,0.52-1.31,0.89-1.94,1.11l6.72,17.6H251.52z M250.99,35.19c0-1-0.14-1.82-0.42-2.45c-0.28-0.63-0.64-1.13-1.09-1.5
			c-0.45-0.37-0.94-0.62-1.48-0.75c-0.54-0.13-1.07-0.19-1.59-0.19h-2.79v9.97h2.62c1.26,0,2.37-0.4,3.31-1.2
			C250.52,38.26,250.99,36.97,250.99,35.19z"/>
		<path class="st0" d="M277.28,30.4v31.86h-8.74V30.4h-7.24v-7.57h23.23v7.57H277.28z"/>
	</g>
	<path class="st2" d="M73.46,50.17L62.08,36.69c-1.47-1.74-5.15-1.74-6.62,0L21.74,63.65c-1.47,1.74,0.37,3.92,3.31,3.92h33.72h14.1
		h2.99V53.01L73.46,50.17z"/>
	<path class="st2" d="M133.64,66.49l-24.51-41.85c-2.04-2.42-7.16-2.42-9.2,0L84.1,43.38l-8.19,9.69l-0.01-0.01l-0.05-0.05v14.56
		h0.05h5.63h22.99h21.32C129.94,67.57,135.68,68.91,133.64,66.49z"/>
	<rect x="21.22" y="62.26" class="st3" width="273.18" height="6.11"/>
</g>
</svg>
